<svg width="24" height="24" viewBox="0 0 24 24" fill="none" xmlns="http://www.w3.org/2000/svg">
<path d="M12.002 22.999C14.1775 22.999 16.3043 22.3539 18.1132 21.1452C19.9222 19.9365 21.3321 18.2185 22.1646 16.2085C22.9972 14.1986 23.215 11.9868 22.7906 9.85304C22.3662 7.71924 21.3185 5.75923 19.7801 4.22085C18.2418 2.68248 16.2817 1.63483 14.1479 1.21039C12.0142 0.785953 9.80242 1.00379 7.79244 1.83635C5.78245 2.66892 4.06448 4.07882 2.85579 5.88776C1.64709 7.6967 1.00195 9.82343 1.00195 11.999C1.00539 14.9154 2.16542 17.7113 4.22758 19.7734C6.28973 21.8356 9.08563 22.9956 12.002 22.999ZM12.002 2.99903C13.782 2.99903 15.522 3.52687 17.0021 4.5158C18.4821 5.50474 19.6357 6.91034 20.3169 8.55488C20.9981 10.1994 21.1763 12.009 20.829 13.7548C20.4818 15.5007 19.6246 17.1043 18.3659 18.363C17.1072 19.6217 15.5036 20.4788 13.7578 20.8261C12.0119 21.1734 10.2023 20.9951 8.5578 20.3139C6.91327 19.6328 5.50766 18.4792 4.51873 16.9992C3.52979 15.5191 3.00195 13.7791 3.00195 11.999C3.0046 9.61289 3.95366 7.32525 5.64092 5.63799C7.32817 3.95074 9.61582 3.00168 12.002 2.99903Z" fill="#7C92B1"/>
<path d="M8.29279 15.7055C8.48031 15.8929 8.73462 15.9982 8.99979 15.9982C9.26495 15.9982 9.51926 15.8929 9.70679 15.7055L11.9998 13.4125L14.2928 15.7055C14.4814 15.8876 14.734 15.9884 14.9962 15.9861C15.2584 15.9839 15.5092 15.8787 15.6946 15.6933C15.88 15.5079 15.9852 15.2571 15.9875 14.9949C15.9897 14.7327 15.8889 14.4801 15.7068 14.2915L13.4138 11.9985L15.7068 9.70546C15.8889 9.51685 15.9897 9.26425 15.9875 9.00205C15.9852 8.73986 15.88 8.48904 15.6946 8.30364C15.5092 8.11823 15.2584 8.01306 14.9962 8.01078C14.734 8.0085 14.4814 8.1093 14.2928 8.29145L11.9998 10.5845L9.70679 8.29145C9.51818 8.1093 9.26558 8.0085 9.00339 8.01078C8.74119 8.01306 8.49038 8.11823 8.30497 8.30364C8.11956 8.48904 8.01439 8.73986 8.01211 9.00205C8.00983 9.26425 8.11063 9.51685 8.29279 9.70546L10.5858 11.9985L8.29279 14.2915C8.10532 14.479 8 14.7333 8 14.9985C8 15.2636 8.10532 15.5179 8.29279 15.7055Z" fill="#7C92B1"/>
</svg>
