<svg width="18" height="18" viewBox="0 0 18 18" fill="none" xmlns="http://www.w3.org/2000/svg">
<g clip-path="url(#clip0_1825_40)">
<path fill-rule="evenodd" clip-rule="evenodd" d="M17.3337 9.00008C17.3337 4.39771 13.6027 0.666748 9.00033 0.666748C4.39795 0.666748 0.666992 4.39771 0.666992 9.00008C0.666992 13.6025 4.39795 17.3334 9.00033 17.3334C13.6027 17.3334 17.3337 13.6025 17.3337 9.00008ZM7.74951 5.24992C7.74951 5.94027 8.30915 6.49992 8.99951 6.49992C9.68987 6.49992 10.2495 5.94027 10.2495 5.24992C10.2495 4.55956 9.68987 3.99992 8.99951 3.99992C8.30915 3.99992 7.74951 4.55956 7.74951 5.24992ZM10.042 9.00008C10.042 8.42478 9.57562 7.95841 9.00033 7.95841H7.95866C7.38336 7.95841 6.91699 8.42478 6.91699 9.00008C6.91699 9.57538 7.38336 10.0417 7.95866 10.0417L7.95784 12.1251C7.38255 12.1251 6.91618 12.5915 6.91618 13.1667C6.91618 13.742 7.38255 14.2084 7.95784 14.2084H10.042C10.6173 14.2084 11.0837 13.742 11.0837 13.1667C11.0837 12.5915 10.6173 12.1251 10.042 12.1251V9.00008Z" fill="#1A94FF"/>
</g>
<defs>
<clipPath id="clip0_1825_40">
<rect width="16.6667" height="16.6667" fill="white" transform="translate(0.666016 0.66626)"/>
</clipPath>
</defs>
</svg>
